<svg width="464" height="227" viewBox="0 0 464 227" fill="none" xmlns="http://www.w3.org/2000/svg">
<rect width="464" height="227" fill="black"/>
<path d="M43.3173 53.2322C47.4694 51.5508 52.1547 50.7524 56.7545 50.9476C58.4975 51.1237 60.1779 51.3782 61.8664 51.8136C64.1091 52.4233 66.2272 53.3903 68.2157 54.5979C70.3427 56.1159 70.5905 57.0297 71.9429 59.2312C73.4342 60.4223 73.5661 60.6946 75.7095 61.0483C80.8411 62.0689 87.7677 63.0083 87.8537 63.7993C87.9396 64.5904 82.7338 64.2497 78.7519 64.2787C73.3654 64.3275 72.4127 64.6043 67.0285 64.7485C67.0085 65.2483 67.0013 65.7479 67.0231 66.2488C74.6149 66.1308 85.2982 65.0856 85.3651 65.7185C85.4325 66.3514 80.1754 66.9926 77.5553 67.634C75.3279 68.2803 74.7639 68.6118 72.5626 69.3337C67.6734 70.6265 66.6033 75.6003 66.7099 80.4942C64.2213 80.5373 61.7305 80.5385 59.2418 80.5784C57.0444 80.6343 54.8696 80.0384 52.979 79.0446C50.0582 77.3891 48.1878 74.1964 48.3896 70.9688C48.5644 69.0299 49.3687 67.1303 50.7666 65.6647C52.6219 63.5599 55.4771 62.4533 58.2997 62.1102C57.9816 62.8303 57.9332 63.6635 58.289 64.3768C58.7512 65.2151 59.6598 65.9121 60.7011 65.8606C62.1504 65.9593 63.399 64.6831 63.3858 63.3835C63.477 62.4302 62.7775 61.5972 61.9497 61.1054C59.6221 59.7499 56.816 59.0438 54.0419 59.2312C49.3389 59.4228 44.7928 61.6188 41.6761 64.916C39.7794 66.766 38.5914 69.1149 37.8125 71.5138C36.5623 75.7904 36.9861 84.8879 36.9861 84.8879L38.0103 91.5344L39.5188 102.792C39.5188 102.792 40.1062 108.784 39.9767 112.583C39.8471 116.387 40.1551 118.528 39.9939 122.33C39.7976 126.961 39.7616 129.476 39.4979 134.077C39.2034 139.219 39.3893 141.289 38.6197 147.276C38.3343 149.496 38.6471 151.035 40.819 152.541C42.2407 153.587 43.9867 154.242 45.7846 154.537C47.9037 154.78 50.0464 154.535 52.1752 154.622C53.5315 154.672 54.9262 155.062 56.0617 155.73C57.5749 156.601 58.5713 158.123 58.8465 159.742C50.7327 159.802 44.8147 160.671 36.7006 160.707C33.1787 160.754 30.0552 161.222 23.7464 161.272C17.4376 161.322 21.8084 145.398 23.1022 134.792C24.396 124.185 23.6939 115.564 23.6283 106.302C23.5627 97.0402 22.2531 94.992 22.1953 87.0728C22.1775 84.3813 22.0432 81.6735 22.4561 78.9961C22.8836 75.0722 24.2826 71.2689 26.2745 67.7785C27.3753 65.9996 28.5187 64.2591 29.9013 62.6789C33.2417 58.9182 37.4766 55.7317 42.3911 53.7962C42.3911 53.7962 42.7705 53.5178 43.3173 53.2322Z" fill="#FAFAFA"/>
<path d="M68.3008 101.147C66.4683 97.7281 79.8072 104.572 83.8773 107.668C89.0637 111.612 90.311 113.81 91.3544 116.609C92.9229 120.816 92.5839 120.553 92.9578 123.709C93.2071 125.813 92.2706 132.124 92.2706 132.124C92.2706 132.124 90.8452 138.349 87.7884 142.195C85.9696 144.418 83.8461 146.362 81.5682 148.071C79.3303 149.868 76.8268 151.261 74.3877 152.731C74.3695 152.833 74.332 153.039 74.3143 153.141C75.7291 153.133 75.7063 153.16 77.121 153.141C79.021 153.091 80.924 153.871 82.2785 155.247C83.1343 156.139 83.6423 157.316 83.8773 158.536C82.8754 158.613 81.8729 158.561 80.8709 158.559C78.2062 158.591 76.9775 158.569 74.3143 158.537C69.8962 158.593 61.0602 159.264 61.0601 158.506C61.0601 157.748 66.0974 156.344 68.3008 154.712C71.1755 152.588 74.2441 148.083 75.4632 146.641C76.6824 145.199 77.3096 143.798 78.212 142.195C79.1143 140.593 80.8709 139.494 80.8709 126.918C80.8709 114.342 70.1333 104.565 68.3008 101.147Z" fill="#FAFAFA"/>
<path d="M67.4988 88.0246C67.4988 88.0246 71.6703 83.0883 75.4425 83.6486C79.2146 84.2088 79.8438 90.2418 77.9577 91.3623C76.0715 92.4828 67.4988 88.0246 67.4988 88.0246C67.4988 88.0246 61.9888 96.8591 59.474 96.8591C56.9592 96.859 53.8158 89.1452 54.4444 86.3438C55.0732 83.5424 67.4988 88.0246 67.4988 88.0246Z" fill="#EA580C"/>
<path d="M67.4988 88.0246C67.4988 88.0246 71.6703 83.0883 75.4425 83.6486C79.2146 84.2088 79.8438 90.2418 77.9577 91.3623C76.0715 92.4828 67.4988 88.0246 67.4988 88.0246ZM67.4988 88.0246C67.4988 88.0246 55.0732 83.8875 54.4444 86.3438C53.8158 89.1452 56.9592 96.859 59.474 96.8591C61.9888 96.8591 67.4988 88.0246 67.4988 88.0246Z" stroke="#EA580C" stroke-width="1.9683"/>
<circle cx="106.5" cy="69" r="8.5" fill="#EA580C"/>
<line x1="107" y1="83.5" x2="107" y2="150.5" stroke="#FAFAFA" stroke-width="14"/>
<mask id="path-7-outside-1_245_1165" maskUnits="userSpaceOnUse" x="121" y="83" width="214" height="98" fill="black">
<rect fill="white" x="121" y="83" width="214" height="98"/>
<path d="M156.919 84.032C173.473 84.032 181.751 93.0773 181.751 111.168V152H167.159V112.448C167.159 101.611 162.167 96.192 152.183 96.192C148.599 96.192 145.441 97.472 142.711 100.032C139.639 102.848 137.847 106.901 137.335 112.192V152H122.743V85.824H137.335V93.504C139.98 90.3467 142.881 88 146.039 86.464C149.281 84.8427 152.908 84.032 156.919 84.032ZM224.638 84.032C232.915 84.032 239.443 87.3173 244.222 93.888V85.824H258.814V147.776C258.814 168.683 248.446 179.136 227.71 179.136C218.494 179.136 211.411 177.429 206.462 174.016C201.598 170.432 198.526 164.971 197.246 157.632H211.838C212.606 161.301 214.184 163.904 216.574 165.44C218.963 166.891 222.675 167.616 227.71 167.616C238.718 167.616 244.222 161.728 244.222 149.952V140.224C239.358 147.051 232.83 150.464 224.638 150.464C215.678 150.464 208.424 147.477 202.878 141.504C197.331 135.616 194.558 127.595 194.558 117.44C194.558 107.371 197.331 99.3067 202.878 93.248C208.424 87.104 215.678 84.032 224.638 84.032ZM226.942 95.808C221.48 95.808 217.214 97.728 214.142 101.568C211.07 105.237 209.534 110.528 209.534 117.44C209.534 123.755 210.728 128.661 213.118 132.16C215.934 136.427 220.499 138.56 226.814 138.56C232.36 138.56 236.712 136.725 239.87 133.056C242.856 129.131 244.35 123.925 244.35 117.44C244.35 110.784 242.856 105.493 239.87 101.568C236.798 97.728 232.488 95.808 226.942 95.808ZM274.118 85.824H288.71V126.144C288.71 131.52 289.819 135.445 292.038 137.92C294.342 140.395 298.011 141.632 303.046 141.632C306.203 141.632 309.275 140.267 312.262 137.536C315.248 134.635 317.382 130.88 318.662 126.272V85.824H333.254V152H318.662V143.424C313.03 150.336 306.118 153.792 297.926 153.792C282.054 153.792 274.118 144.875 274.118 127.04V85.824Z"/>
</mask>
<path d="M156.919 84.032C173.473 84.032 181.751 93.0773 181.751 111.168V152H167.159V112.448C167.159 101.611 162.167 96.192 152.183 96.192C148.599 96.192 145.441 97.472 142.711 100.032C139.639 102.848 137.847 106.901 137.335 112.192V152H122.743V85.824H137.335V93.504C139.98 90.3467 142.881 88 146.039 86.464C149.281 84.8427 152.908 84.032 156.919 84.032ZM224.638 84.032C232.915 84.032 239.443 87.3173 244.222 93.888V85.824H258.814V147.776C258.814 168.683 248.446 179.136 227.71 179.136C218.494 179.136 211.411 177.429 206.462 174.016C201.598 170.432 198.526 164.971 197.246 157.632H211.838C212.606 161.301 214.184 163.904 216.574 165.44C218.963 166.891 222.675 167.616 227.71 167.616C238.718 167.616 244.222 161.728 244.222 149.952V140.224C239.358 147.051 232.83 150.464 224.638 150.464C215.678 150.464 208.424 147.477 202.878 141.504C197.331 135.616 194.558 127.595 194.558 117.44C194.558 107.371 197.331 99.3067 202.878 93.248C208.424 87.104 215.678 84.032 224.638 84.032ZM226.942 95.808C221.48 95.808 217.214 97.728 214.142 101.568C211.07 105.237 209.534 110.528 209.534 117.44C209.534 123.755 210.728 128.661 213.118 132.16C215.934 136.427 220.499 138.56 226.814 138.56C232.36 138.56 236.712 136.725 239.87 133.056C242.856 129.131 244.35 123.925 244.35 117.44C244.35 110.784 242.856 105.493 239.87 101.568C236.798 97.728 232.488 95.808 226.942 95.808ZM274.118 85.824H288.71V126.144C288.71 131.52 289.819 135.445 292.038 137.92C294.342 140.395 298.011 141.632 303.046 141.632C306.203 141.632 309.275 140.267 312.262 137.536C315.248 134.635 317.382 130.88 318.662 126.272V85.824H333.254V152H318.662V143.424C313.03 150.336 306.118 153.792 297.926 153.792C282.054 153.792 274.118 144.875 274.118 127.04V85.824Z" fill="#FAFAFA"/>
<path d="M181.751 152V153H182.751V152H181.751ZM167.159 152H166.159V153H167.159V152ZM142.711 100.032L143.386 100.769L143.394 100.762L142.711 100.032ZM137.335 112.192L136.339 112.096L136.335 112.144V112.192H137.335ZM137.335 152V153H138.335V152H137.335ZM122.743 152H121.743V153H122.743V152ZM122.743 85.824V84.824H121.743V85.824H122.743ZM137.335 85.824H138.335V84.824H137.335V85.824ZM137.335 93.504H136.335V96.2546L138.101 94.1462L137.335 93.504ZM146.039 86.464L146.476 87.3633L146.486 87.3584L146.039 86.464ZM156.919 84.032V85.032C165.018 85.032 170.915 87.2406 174.805 91.4911C178.71 95.7584 180.751 102.256 180.751 111.168H181.751H182.751C182.751 101.989 180.653 94.9189 176.28 90.1409C171.893 85.3461 165.374 83.032 156.919 83.032V84.032ZM181.751 111.168H180.751V152H181.751H182.751V111.168H181.751ZM181.751 152V151H167.159V152V153H181.751V152ZM167.159 152H168.159V112.448H167.159H166.159V152H167.159ZM167.159 112.448H168.159C168.159 106.895 166.881 102.543 164.15 99.5784C161.404 96.5983 157.351 95.192 152.183 95.192V96.192V97.192C156.998 97.192 160.433 98.4951 162.679 100.934C164.94 103.388 166.159 107.164 166.159 112.448H167.159ZM152.183 96.192V95.192C148.332 95.192 144.933 96.5772 142.027 99.3025L142.711 100.032L143.394 100.762C145.949 98.3668 148.865 97.192 152.183 97.192V96.192ZM142.711 100.032L142.035 99.2948C138.735 102.32 136.868 106.629 136.339 112.096L137.335 112.192L138.33 112.288C138.825 107.173 140.542 103.376 143.386 100.769L142.711 100.032ZM137.335 112.192H136.335V152H137.335H138.335V112.192H137.335ZM137.335 152V151H122.743V152V153H137.335V152ZM122.743 152H123.743V85.824H122.743H121.743V152H122.743ZM122.743 85.824V86.824H137.335V85.824V84.824H122.743V85.824ZM137.335 85.824H136.335V93.504H137.335H138.335V85.824H137.335ZM137.335 93.504L138.101 94.1462C140.671 91.0783 143.465 88.8279 146.476 87.3632L146.039 86.464L145.601 85.5648C142.297 87.1721 139.288 89.6151 136.568 92.8618L137.335 93.504ZM146.039 86.464L146.486 87.3584C149.575 85.8136 153.046 85.032 156.919 85.032V84.032V83.032C152.769 83.032 148.987 83.8717 145.591 85.5696L146.039 86.464ZM244.221 93.888L243.413 94.4762L245.221 96.9632V93.888H244.221ZM244.221 85.824V84.824H243.221V85.824H244.221ZM258.814 85.824H259.814V84.824H258.814V85.824ZM206.462 174.016L205.868 174.821L205.881 174.83L205.894 174.839L206.462 174.016ZM197.245 157.632V156.632H196.056L196.26 157.804L197.245 157.632ZM211.838 157.632L212.816 157.427L212.65 156.632H211.838V157.632ZM216.574 165.44L216.033 166.281L216.044 166.288L216.055 166.295L216.574 165.44ZM244.221 140.224H245.221V137.097L243.407 139.644L244.221 140.224ZM202.878 141.504L203.61 140.824L203.605 140.818L202.878 141.504ZM202.878 93.248L203.615 93.9233L203.62 93.9181L202.878 93.248ZM214.142 101.568L214.908 102.21L214.915 102.201L214.922 102.193L214.142 101.568ZM213.118 132.16L213.952 131.609L213.948 131.603L213.943 131.596L213.118 132.16ZM239.87 133.056L240.628 133.708L240.647 133.685L240.665 133.662L239.87 133.056ZM239.87 101.568L240.665 100.962L240.658 100.953L240.65 100.943L239.87 101.568ZM224.637 84.032V85.032C232.602 85.032 238.826 88.17 243.413 94.4762L244.221 93.888L245.03 93.2998C240.059 86.4647 233.228 83.032 224.637 83.032V84.032ZM244.221 93.888H245.221V85.824H244.221H243.221V93.888H244.221ZM244.221 85.824V86.824H258.814V85.824V84.824H244.221V85.824ZM258.814 85.824H257.814V147.776H258.814H259.814V85.824H258.814ZM258.814 147.776H257.814C257.814 158.077 255.26 165.619 250.328 170.592C245.397 175.563 237.921 178.136 227.71 178.136V179.136V180.136C238.234 180.136 246.31 177.482 251.747 172C257.183 166.52 259.814 158.381 259.814 147.776H258.814ZM227.71 179.136V178.136C218.595 178.136 211.744 176.445 207.029 173.193L206.462 174.016L205.894 174.839C211.077 178.414 218.392 180.136 227.71 180.136V179.136ZM206.462 174.016L207.055 173.211C202.444 169.813 199.477 164.607 198.231 157.46L197.245 157.632L196.26 157.804C197.574 165.334 200.751 171.051 205.868 174.821L206.462 174.016ZM197.245 157.632V158.632H211.838V157.632V156.632H197.245V157.632ZM211.838 157.632L210.859 157.837C211.663 161.681 213.353 164.558 216.033 166.281L216.574 165.44L217.114 164.599C215.016 163.25 213.548 160.921 212.816 157.427L211.838 157.632ZM216.574 165.44L216.055 166.295C218.681 167.89 222.618 168.616 227.71 168.616V167.616V166.616C222.732 166.616 219.244 165.892 217.092 164.585L216.574 165.44ZM227.71 167.616V168.616C233.386 168.616 237.822 167.095 240.824 163.883C243.815 160.684 245.221 155.978 245.221 149.952H244.221H243.221C243.221 155.702 241.876 159.828 239.363 162.517C236.861 165.193 233.041 166.616 227.71 166.616V167.616ZM244.221 149.952H245.221V140.224H244.221H243.221V149.952H244.221ZM244.221 140.224L243.407 139.644C238.726 146.214 232.497 149.464 224.637 149.464V150.464V151.464C233.162 151.464 239.989 147.887 245.036 140.804L244.221 140.224ZM224.637 150.464V149.464C215.925 149.464 208.948 146.572 203.61 140.824L202.878 141.504L202.145 142.184C207.9 148.383 215.43 151.464 224.637 151.464V150.464ZM202.878 141.504L203.605 140.818C198.275 135.16 195.558 127.408 195.558 117.44H194.558H193.558C193.558 127.782 196.387 136.072 202.15 142.19L202.878 141.504ZM194.558 117.44H195.558C195.558 107.561 198.273 99.7581 203.615 93.9232L202.878 93.248L202.14 92.5727C196.388 98.8552 193.558 107.18 193.558 117.44H194.558ZM202.878 93.248L203.62 93.9181C208.96 88.0028 215.934 85.032 224.637 85.032V84.032V83.032C215.421 83.032 207.888 86.2052 202.135 92.5779L202.878 93.248ZM226.941 95.808V94.808C221.215 94.808 216.645 96.8378 213.361 100.943L214.142 101.568L214.922 102.193C217.782 98.6182 221.746 96.808 226.941 96.808V95.808ZM214.142 101.568L213.375 100.926C210.097 104.841 208.534 110.395 208.534 117.44H209.534H210.534C210.534 110.661 212.042 105.634 214.908 102.21L214.142 101.568ZM209.534 117.44H208.534C208.534 123.863 209.746 128.996 212.292 132.724L213.118 132.16L213.943 131.596C211.711 128.327 210.534 123.646 210.534 117.44H209.534ZM213.118 132.16L212.283 132.711C215.329 137.326 220.253 139.56 226.814 139.56V138.56V137.56C220.745 137.56 216.538 135.528 213.952 131.609L213.118 132.16ZM226.814 138.56V139.56C232.604 139.56 237.251 137.632 240.628 133.708L239.87 133.056L239.111 132.404C236.173 135.819 232.116 137.56 226.814 137.56V138.56ZM239.87 133.056L240.665 133.662C243.821 129.514 245.35 124.075 245.35 117.44H244.35H243.35C243.35 123.775 241.892 128.747 239.074 132.45L239.87 133.056ZM244.35 117.44H245.35C245.35 110.641 243.824 105.114 240.665 100.962L239.87 101.568L239.074 102.174C241.888 105.873 243.35 110.927 243.35 117.44H244.35ZM239.87 101.568L240.65 100.943C237.363 96.8337 232.748 94.808 226.941 94.808V95.808V96.808C232.228 96.808 236.232 98.6223 239.089 102.193L239.87 101.568ZM274.117 85.824V84.824H273.117V85.824H274.117ZM288.71 85.824H289.71V84.824H288.71V85.824ZM292.038 137.92L291.293 138.588L291.299 138.595L291.306 138.601L292.038 137.92ZM312.262 137.536L312.936 138.274L312.947 138.264L312.958 138.253L312.262 137.536ZM318.661 126.272L319.625 126.54L319.661 126.408V126.272H318.661ZM318.661 85.824V84.824H317.661V85.824H318.661ZM333.254 85.824H334.254V84.824H333.254V85.824ZM333.254 152V153H334.254V152H333.254ZM318.661 152H317.661V153H318.661V152ZM318.661 143.424H319.661V140.614L317.886 142.792L318.661 143.424ZM274.117 85.824V86.824H288.71V85.824V84.824H274.117V85.824ZM288.71 85.824H287.71V126.144H288.71H289.71V85.824H288.71ZM288.71 126.144H287.71C287.71 131.623 288.834 135.845 291.293 138.588L292.038 137.92L292.782 137.252C290.803 135.046 289.71 131.417 289.71 126.144H288.71ZM292.038 137.92L291.306 138.601C293.875 141.361 297.869 142.632 303.046 142.632V141.632V140.632C298.152 140.632 294.808 139.428 292.769 137.239L292.038 137.92ZM303.046 141.632V142.632C306.517 142.632 309.819 141.124 312.936 138.274L312.262 137.536L311.587 136.798C308.731 139.409 305.889 140.632 303.046 140.632V141.632ZM312.262 137.536L312.958 138.253C316.09 135.211 318.305 131.293 319.625 126.54L318.661 126.272L317.698 126.004C316.458 130.467 314.406 134.058 311.565 136.819L312.262 137.536ZM318.661 126.272H319.661V85.824H318.661H317.661V126.272H318.661ZM318.661 85.824V86.824H333.254V85.824V84.824H318.661V85.824ZM333.254 85.824H332.254V152H333.254H334.254V85.824H333.254ZM333.254 152V151H318.661V152V153H333.254V152ZM318.661 152H319.661V143.424H318.661H317.661V152H318.661ZM318.661 143.424L317.886 142.792C312.425 149.495 305.788 152.792 297.926 152.792V153.792V154.792C306.447 154.792 313.634 151.177 319.437 144.056L318.661 143.424ZM297.926 153.792V152.792C290.176 152.792 284.538 150.62 280.817 146.439C277.076 142.236 275.117 135.83 275.117 127.04H274.117H273.117C273.117 136.085 275.127 143.055 279.322 147.769C283.537 152.505 289.803 154.792 297.926 154.792V153.792ZM274.117 127.04H275.117V85.824H274.117H273.117V127.04H274.117Z" fill="#FAFAFA" mask="url(#path-7-outside-1_245_1165)"/>
<path d="M343.667 68.6434C344.059 68.2714 344.463 67.919 344.878 67.586C352.358 61.5827 363.255 61.9352 370.333 68.6434" stroke="#FAFAFA" stroke-width="4" stroke-linecap="round" stroke-linejoin="round"/>
<path d="M366.333 73.1993C361.179 68.0446 352.821 68.0446 347.667 73.1993" stroke="#FAFAFA" stroke-width="4" stroke-linecap="round" stroke-linejoin="round"/>
<path d="M362.333 77.5424C359.388 74.5969 354.612 74.5969 351.667 77.5424" stroke="#FAFAFA" stroke-width="4" stroke-linecap="round" stroke-linejoin="round"/>
<path fill-rule="evenodd" clip-rule="evenodd" d="M357 82.6666C357.92 82.6666 358.667 81.9204 358.667 80.9999C358.667 80.0795 357.92 79.3333 357 79.3333C356.08 79.3333 355.333 80.0795 355.333 80.9999C355.333 81.9204 356.08 82.6666 357 82.6666Z" fill="#FAFAFA"/>
<line x1="357.469" y1="88" x2="357.469" y2="155" stroke="#FAFAFA" stroke-width="13"/>
<mask id="path-14-outside-2_245_1165" maskUnits="userSpaceOnUse" x="379" y="83" width="63" height="70" fill="black">
<rect fill="white" x="379" y="83" width="63" height="70"/>
<path d="M415.169 84.032C431.723 84.032 440.001 93.0773 440.001 111.168V152H425.409V112.448C425.409 101.611 420.417 96.192 410.433 96.192C406.849 96.192 403.691 97.472 400.961 100.032C397.889 102.848 396.097 106.901 395.585 112.192V152H380.993V85.824H395.585V93.504C398.23 90.3467 401.131 88 404.289 86.464C407.531 84.8427 411.158 84.032 415.169 84.032Z"/>
</mask>
<path d="M415.169 84.032C431.723 84.032 440.001 93.0773 440.001 111.168V152H425.409V112.448C425.409 101.611 420.417 96.192 410.433 96.192C406.849 96.192 403.691 97.472 400.961 100.032C397.889 102.848 396.097 106.901 395.585 112.192V152H380.993V85.824H395.585V93.504C398.23 90.3467 401.131 88 404.289 86.464C407.531 84.8427 411.158 84.032 415.169 84.032Z" fill="#FAFAFA"/>
<path d="M440.001 152V153H441.001V152H440.001ZM425.409 152H424.409V153H425.409V152ZM400.961 100.032L401.636 100.769L401.644 100.762L400.961 100.032ZM395.585 112.192L394.589 112.096L394.585 112.144V112.192H395.585ZM395.585 152V153H396.585V152H395.585ZM380.993 152H379.993V153H380.993V152ZM380.993 85.824V84.824H379.993V85.824H380.993ZM395.585 85.824H396.585V84.824H395.585V85.824ZM395.585 93.504H394.585V96.2546L396.351 94.1462L395.585 93.504ZM404.289 86.464L404.726 87.3633L404.736 87.3584L404.289 86.464ZM415.169 84.032V85.032C423.268 85.032 429.165 87.2406 433.055 91.4911C436.96 95.7584 439.001 102.256 439.001 111.168H440.001H441.001C441.001 101.989 438.903 94.9189 434.53 90.1409C430.143 85.3461 423.624 83.032 415.169 83.032V84.032ZM440.001 111.168H439.001V152H440.001H441.001V111.168H440.001ZM440.001 152V151H425.409V152V153H440.001V152ZM425.409 152H426.409V112.448H425.409H424.409V152H425.409ZM425.409 112.448H426.409C426.409 106.895 425.131 102.543 422.4 99.5784C419.654 96.5983 415.601 95.192 410.433 95.192V96.192V97.192C415.248 97.192 418.683 98.4951 420.929 100.934C423.19 103.388 424.409 107.164 424.409 112.448H425.409ZM410.433 96.192V95.192C406.582 95.192 403.183 96.5772 400.277 99.3025L400.961 100.032L401.644 100.762C404.199 98.3668 407.115 97.192 410.433 97.192V96.192ZM400.961 100.032L400.285 99.2948C396.985 102.32 395.118 106.629 394.589 112.096L395.585 112.192L396.58 112.288C397.075 107.173 398.792 103.376 401.636 100.769L400.961 100.032ZM395.585 112.192H394.585V152H395.585H396.585V112.192H395.585ZM395.585 152V151H380.993V152V153H395.585V152ZM380.993 152H381.993V85.824H380.993H379.993V152H380.993ZM380.993 85.824V86.824H395.585V85.824V84.824H380.993V85.824ZM395.585 85.824H394.585V93.504H395.585H396.585V85.824H395.585ZM395.585 93.504L396.351 94.1462C398.921 91.0783 401.715 88.8279 404.726 87.3632L404.289 86.464L403.851 85.5648C400.547 87.1721 397.538 89.6151 394.818 92.8618L395.585 93.504ZM404.289 86.464L404.736 87.3584C407.825 85.8136 411.296 85.032 415.169 85.032V84.032V83.032C411.019 83.032 407.237 83.8717 403.841 85.5696L404.289 86.464Z" fill="#FAFAFA" mask="url(#path-14-outside-2_245_1165)"/>
</svg>
