<svg width="125" height="125" viewBox="0 0 125 125" fill="none" xmlns="http://www.w3.org/2000/svg">
<rect width="125" height="125" rx="16" fill="black"/>
<path d="M51.3173 10.7323C55.4694 9.0509 60.1547 8.2525 64.7545 8.44776C66.4975 8.6238 68.1779 8.87834 69.8664 9.31371C72.1091 9.92345 74.2272 10.8904 76.2157 12.0981C78.3427 13.616 78.5905 14.5298 79.9429 16.7314C81.4342 17.9225 81.5661 18.1947 83.7095 18.5485C88.8411 19.569 95.7677 20.5084 95.8537 21.2994C95.9396 22.0905 90.7338 21.7498 86.7519 21.7788C81.3654 21.8276 80.4127 22.1044 75.0285 22.2486C75.0085 22.7484 75.0013 23.2481 75.0231 23.7489C82.6149 23.6309 93.2982 22.5857 93.3651 23.2186C93.4325 23.8515 88.1754 24.4927 85.5553 25.1342C83.3279 25.7805 82.7639 26.1119 80.5626 26.8338C75.6734 28.1266 74.6033 33.1004 74.7099 37.9943C72.2213 38.0374 69.7305 38.0386 67.2418 38.0786C65.0444 38.1345 62.8696 37.5385 60.979 36.5447C58.0582 34.8892 56.1878 31.6965 56.3896 28.4689C56.5644 26.53 57.3687 24.6304 58.7666 23.1648C60.6219 21.06 63.4771 19.9535 66.2997 19.6104C65.9816 20.3304 65.9332 21.1636 66.289 21.8769C66.7512 22.7152 67.6598 23.4122 68.7011 23.3607C70.1504 23.4594 71.399 22.1833 71.3858 20.8836C71.477 19.9303 70.7775 19.0974 69.9497 18.6055C67.6221 17.2501 64.816 16.5439 62.0419 16.7314C57.3389 16.9229 52.7928 19.1189 49.6761 22.4161C47.7794 24.2661 46.5914 26.615 45.8125 29.0139C44.5623 33.2905 44.9861 42.388 44.9861 42.388L46.0103 49.0345L47.5188 60.2922C47.5188 60.2922 48.1062 66.2844 47.9767 70.0834C47.8471 73.8868 48.1551 76.028 47.9939 79.8301C47.7976 84.4607 47.7616 86.9765 47.4979 91.5774C47.2034 96.719 47.3893 98.789 46.6197 104.776C46.3343 106.996 46.6471 108.535 48.819 110.041C50.2407 111.087 51.9867 111.742 53.7846 112.037C55.9037 112.28 58.0464 112.035 60.1752 112.122C61.5315 112.172 62.9262 112.562 64.0617 113.23C65.5749 114.101 66.5713 115.623 66.8465 117.243C58.7327 117.302 52.8147 118.171 44.7006 118.208C41.1787 118.254 38.0552 118.722 31.7464 118.772C25.4376 118.822 29.8084 102.899 31.1022 92.2919C32.396 81.6852 31.6939 73.0639 31.6283 63.8021C31.5627 54.5404 30.2531 52.4921 30.1953 44.5729C30.1775 41.8815 30.0432 39.1736 30.4561 36.4962C30.8836 32.5723 32.2826 28.7691 34.2745 25.2786C35.3753 23.4997 36.5187 21.7592 37.9013 20.179C41.2417 16.4183 45.4766 13.2318 50.3911 11.2963C50.3911 11.2963 50.7705 11.018 51.3173 10.7323Z" fill="white"/>
<path d="M76.3008 58.6468C74.4683 55.2282 87.8072 62.0721 91.8773 65.1677C97.0637 69.1123 98.3109 71.3099 99.3544 74.1088C100.923 78.3164 100.584 78.0534 100.958 81.2091C101.207 83.3129 100.271 89.6242 100.271 89.6242C100.271 89.6242 98.8452 95.8489 95.7884 99.6954C93.9696 101.918 91.8461 103.862 89.5682 105.571C87.3303 107.368 84.8267 108.761 82.3876 110.231C82.3694 110.333 82.332 110.539 82.3143 110.641C83.7291 110.633 83.7062 110.66 85.121 110.641C87.0209 110.591 88.924 111.371 90.2784 112.747C91.1343 113.639 91.6423 114.816 91.8773 116.036C90.8753 116.113 89.8729 116.061 88.8709 116.059C86.2062 116.091 84.9775 116.07 82.3143 116.037C77.8962 116.093 69.0601 116.764 69.0601 116.006C69.0601 115.248 74.0974 113.844 76.3008 112.212C79.1755 110.088 82.244 105.583 83.4632 104.141C84.6824 102.699 85.3096 101.298 86.212 99.6954C87.1143 98.0929 88.8709 96.9939 88.8709 84.4182C88.8709 71.8425 78.1333 62.0655 76.3008 58.6468Z" fill="white"/>
<path d="M75.4988 45.5247C75.4988 45.5247 79.6703 40.5883 83.4425 41.1486C87.2146 41.7088 87.8438 47.7418 85.9576 48.8623C84.0715 49.9829 75.4988 45.5247 75.4988 45.5247C75.4988 45.5247 69.9888 54.3591 67.474 54.3591C64.9592 54.3591 61.8157 46.6453 62.4444 43.8438C63.0731 41.0424 75.4988 45.5247 75.4988 45.5247Z" fill="#EA580C"/>
<path d="M75.4988 45.5247C75.4988 45.5247 79.6703 40.5883 83.4425 41.1486C87.2146 41.7088 87.8438 47.7418 85.9576 48.8623C84.0715 49.9829 75.4988 45.5247 75.4988 45.5247ZM75.4988 45.5247C75.4988 45.5247 63.0731 41.3876 62.4444 43.8438C61.8157 46.6453 64.9592 54.3591 67.474 54.3591C69.9888 54.3591 75.4988 45.5247 75.4988 45.5247Z" stroke="#EA580C" stroke-width="1.9683"/>
</svg>
